#!OML:ASF X:\für Bonn\!DataBase\2005_08_11_Bastian_Final\c3d\Bastian.ASF
:FULLY-SPECIFIED
:DEGREES
128
root -4.44467 16.9618 -0.592116 534.399 45.7398 -170.589
lowerback 34.258 -1.34815 -5.97246
upperback 18.8001 0.90992 -1.40427
thorax 3.36996 1.78787 1.51735
lowerneck -15.0833 -14.6444 -24.5458
upperneck -8.01078 -16.382 42.3762
head 7.6348 -6.35539 17.6147
rclavicle 2.54444e-014 -6.20208e-014
rhumerus -19.1475 14.8458 -89.0748
rradius 36.2651
rwrist 7.23906
rhand -11.6441 4.36794
rfingers 7.12502
rthumb 14.3999 -25.1126
lclavicle 2.54444e-014 -6.20208e-014
lhumerus -0.761458 -11.9585 -280.456
lradius 33.1282
lwrist -345.228
lhand -16.0485 -11.3667
lfingers 7.12502
lthumb 10.1533 18.3683
rfemur -45.9034 -0.575996 23.7473
rtibia 96.7719
rfoot -5.70859 2.83964
rtoes -18.4505
lfemur -7.1156 5.76823 -12.5853
ltibia 45.9917
lfoot -16.5254 -13.3046
ltoes -2.2296
129
root -4.40213 16.9634 -0.648591 534.231 45.8661 -170.598
lowerback 34.2327 -1.37894 -6.06987
upperback 18.873 0.859572 -1.37592
thorax 3.46594 1.75319 1.61511
lowerneck -15.2184 -14.6427 -24.5986
upperneck -7.87277 -16.3906 42.385
head 7.71064 -6.34218 17.6359
rclavicle 2.06736e-014 6.36111e-015
rhumerus -19.5652 15.0541 -89.1436
rradius 35.6453
rwrist 6.7573
rhand -11.6181 4.46204
rfingers 7.12502
rthumb 14.425 -25.0167
lclavicle 2.06736e-014 6.36111e-015
lhumerus -0.0516496 -12.0079 -280.593
lradius 33.6919
lwrist -345.331
lhand -15.9753 -11.4496
lfingers 7.12502
lthumb 10.224 18.2819
rfemur -46.466 -0.614416 23.7419
rtibia 96.0742
rfoot -5.52238 2.96742
rtoes -19.2532
lfemur -6.53023 5.82677 -12.5614
ltibia 45.817
lfoot -16.7098 -13.3418
ltoes -1.96926
130
root -4.35952 16.9664 -0.707254 534.039 45.9697 -170.653
lowerback 34.1867 -1.42174 -6.18243
upperback 18.9359 0.786209 -1.3587
thorax 3.56033 1.7047 1.71532
lowerneck -15.3455 -14.6306 -24.635
upperneck -7.7033 -16.3966 42.3755
head 7.78745 -6.32844 17.6468
rclavicle 9.38264e-014 3.18055e-015
rhumerus -19.9731 15.2841 -89.223
rradius 35.0053
rwrist 6.31664
rhand -11.5983 4.52698
rfingers 7.12502
rthumb 14.4441 -24.9504
lclavicle 9.38264e-014 3.18055e-015
lhumerus 0.612697 -11.8807 -280.66
lradius 34.1949
lwrist -345.66
lhand -15.9423 -11.5735
lfingers 7.12502
lthumb 10.2558 18.1564
rfemur -46.939 -0.675292 23.6892
rtibia 95.2875
rfoot -5.3237 3.11452
rtoes -20.2489
lfemur -5.95189 5.88456 -12.5838
ltibia 45.6359
lfoot -16.8992 -13.3691
ltoes -1.82993
131
root -4.31626 16.9688 -0.765131 533.898 46.083 -170.667
lowerback 34.117 -1.4557 -6.24529
upperback 18.9957 0.737542 -1.34408
thorax 3.6564 1.67212 1.78066
lowerneck -15.4716 -14.6288 -24.6448
upperneck -7.54688 -16.4179 42.3665
head 7.86301 -6.32179 17.6457
rclavicle -6.52014e-014 2.54444e-014
rhumerus -20.3885 15.6049 -89.3367
rradius 34.4546
rwrist 5.74676
rhand -11.5649 4.43075
rfingers 7.12502
rthumb 14.4763 -25.0443
lclavicle -6.52014e-014 2.54444e-014
lhumerus 1.29149 -11.7645 -280.713
lradius 34.6444
lwrist -346.046
lhand -15.9191 -11.6654
lfingers 7.12502
lthumb 10.2782 18.0635
rfemur -47.365 -0.710557 23.6831
rtibia 94.4198
rfoot -5.06806 3.24533
rtoes -21.1303
lfemur -5.39815 5.94677 -12.5678
ltibia 45.4574
lfoot -17.0824 -13.4116
ltoes -1.71644
132
root -4.27201 16.9702 -0.823638 533.726 46.1788 -170.725
lowerback 34.0275 -1.48599 -6.36296
upperback 19.0612 0.679715 -1.31689
thorax 3.76856 1.62841 1.89086
lowerneck -15.5967 -14.6111 -24.6591
upperneck -7.38282 -16.4145 42.3473
head 7.93024 -6.30363 17.6492
rclavicle 1.90833e-014 -1.11319e-014
rhumerus -20.8029 15.9295 -89.4065
rradius 33.9583
rwrist 5.29719
rhand -11.4598 4.3153
rfingers 7.12502
rthumb 14.5775 -25.1524
lclavicle 1.90833e-014 -1.11319e-014
lhumerus 1.9235 -11.6475 -280.726
lradius 35.1041
lwrist -346.385
lhand -15.941 -11.6819
lfingers 7.12502
lthumb 10.257 18.048
rfemur -47.7228 -0.775247 23.646
rtibia 93.4883
rfoot -4.81012 3.42309
rtoes -21.9071
lfemur -4.84332 5.9858 -12.5983
ltibia 45.2836
lfoot -17.2959 -13.4126
ltoes -1.67401
133
root -4.22709 16.971 -0.881979 533.612 46.2724 -170.735
lowerback 33.924 -1.51506 -6.43432
upperback 19.1095 0.630279 -1.28201
thorax 3.86403 1.59045 1.98224
lowerneck -15.7093 -14.6006 -24.6529
upperneck -7.21488 -16.4292 42.3117
head 7.99668 -6.29569 17.633
rclavicle -6.04305e-014 1.59028e-014
rhumerus -21.2276 16.1282 -89.4846
rradius 33.4943
rwrist 5.00697
rhand -11.2714 4.1146
rfingers 7.12502
rthumb 14.759 -25.3399
lclavicle -6.04305e-014 1.59028e-014
lhumerus 2.54491 -11.6587 -280.744
lradius 35.4798
lwrist -346.641
lhand -16.0201 -11.7337
lfingers 7.12502
lthumb 10.1808 18
rfemur -48.0319 -0.778341 23.6545
rtibia 92.4843
rfoot -4.51014 3.59775
rtoes -22.5952
lfemur -4.32622 6.03657 -12.5823
ltibia 45.1215
lfoot -17.4915 -13.4485
ltoes -1.5475
